<svg xmlns="http://www.w3.org/2000/svg" xmlns:xlink="http://www.w3.org/1999/xlink" width="500" zoomAndPan="magnify" viewBox="0 0 375 374.999991" height="500" preserveAspectRatio="xMidYMid meet" version="1.0"><defs><clipPath id="fe67c09d14"><path d="M 37.5 155 L 192 155 L 192 291.507812 L 37.5 291.507812 Z M 37.5 155 " clip-rule="nonzero"/></clipPath><clipPath id="90a312585e"><path d="M 191 83.757812 L 345.75 83.757812 L 345.75 220 L 191 220 Z M 191 83.757812 " clip-rule="nonzero"/></clipPath></defs><rect x="-37.5" width="450" fill="#ffffff" y="-37.499999" height="449.999989" fill-opacity="1"/><rect x="-37.5" width="450" fill="#ffffff" y="-37.499999" height="449.999989" fill-opacity="1"/><g clip-path="url(#fe67c09d14)"><path fill="#ef5a6f" d="M 141.386719 251.488281 L 141.386719 270.265625 L 56.339844 230.757812 L 56.339844 215.519531 L 141.386719 176.007812 L 141.386719 194.792969 L 77.070312 222.960938 L 77.070312 223.316406 Z M 191.890625 155.140625 L 49.671875 155.140625 C 42.957031 155.140625 37.511719 160.582031 37.511719 167.300781 L 37.511719 278.976562 C 37.511719 285.691406 42.957031 291.132812 49.671875 291.132812 L 152.410156 291.132812 L 191.890625 155.140625 " fill-opacity="1" fill-rule="nonzero"/></g><g clip-path="url(#90a312585e)"><path fill="#536493" d="M 327.210938 159.972656 L 242.171875 198.949219 L 242.171875 180.167969 L 307.902344 152 L 307.902344 151.644531 L 242.171875 123.472656 L 242.171875 104.691406 L 327.210938 143.671875 Z M 231.375 83.824219 L 191.890625 219.816406 L 333.882812 219.816406 C 340.597656 219.816406 346.039062 214.375 346.039062 207.65625 L 346.039062 95.980469 C 346.039062 89.269531 340.597656 83.824219 333.882812 83.824219 L 231.375 83.824219 " fill-opacity="1" fill-rule="nonzero"/></g></svg>